<?xml version="1.0" encoding="UTF-8" standalone="no"?>
<!DOCTYPE svg PUBLIC "-//W3C//DTD SVG 1.1//EN" "http://www.w3.org/Graphics/SVG/1.1/DTD/svg11.dtd">
<svg width="100%" height="100%" viewBox="0 0 349 151" version="1.1" xmlns="http://www.w3.org/2000/svg" xmlns:xlink="http://www.w3.org/1999/xlink" xml:space="preserve" xmlns:serif="http://www.serif.com/" style="fill-rule:evenodd;clip-rule:evenodd;stroke-linecap:round;stroke-linejoin:round;stroke-miterlimit:1.5;">
    <g transform="matrix(1,0,0,1,-4754.52,-1670.98)">
        <g transform="matrix(1.97703,0,0,3.26135,2171.17,43.8318)">
            <g transform="matrix(0.4965,0,0,0.300978,1112.63,-386.094)">
                <g transform="matrix(0.470054,0,0,0.466177,-190.807,2808.89)">
                    <ellipse cx="1403.58" cy="447" rx="163.421" ry="162" style="fill:none;stroke:white;stroke-width:5.53px;"/>
                </g>
                <g transform="matrix(1,0,0,1,-4.075,4.075)">
                    <g transform="matrix(0.0553746,0,0,0.0553746,464.243,2999.41)">
                        <path d="M353.6,105.6L353.6,27.2C353.6,26 353.6,24.4 353.2,23.2C352.4,17.6 349.6,12 345.6,8C341.2,3.6 335.6,0.8 329.2,0.8C328,0.8 327.2,0.8 326,1.2L142.8,28.8C136,29.6 130,32.8 125.6,37.2C121.2,41.6 118.4,47.6 118.4,54.8L118.4,261.6C117.6,261.2 117.2,260.8 116.8,260.8C104.4,251.6 87.6,246 69.2,246C50.8,246 34,251.6 21.6,260.8C8.4,270.4 0,284.4 0,299.6C0,314.8 8,328.8 21.6,338.4C34,347.6 50.8,353.2 69.2,353.2C87.6,353.2 104.4,347.6 116.8,338.4C130,328.8 138.4,314.8 138.4,299.6L138.4,142.4L333.6,117.2L333.6,234C333.2,233.6 332.8,233.6 332.4,233.2C320,224 303.2,218.4 284.8,218.4C266.4,218.4 249.6,224 237.2,233.2C224,242.8 215.6,256.8 215.6,272C215.6,287.2 223.6,301.2 237.2,310.8C249.6,320 266.4,325.6 284.8,325.6C303.2,325.6 320,320 332.4,310.8C345.6,301.2 354,287.2 354,272L354,106.8C353.6,106.4 353.6,106 353.6,105.6Z" style="fill:white;fill-rule:nonzero;"/>
                    </g>
                    <g transform="matrix(2.28019,2.51141e-32,0,2.92426,-2208.77,2530.39)">
                        <g transform="matrix(0.24758,0,0,0.19305,0.893567,-1.25437)">
                            <path d="M4700,800L4800,800L4800,900C4800.94,918.701 4797.32,920.95 4790,920C4784.43,919.359 4782.83,909.705 4783,900L4690,900C4685.65,907.029 4684.86,913.761 4690,920L4790,920" style="fill:none;stroke:white;stroke-width:4.51px;"/>
                        </g>
                        <g transform="matrix(0.24758,-3.83707e-35,0,0.189566,0.893567,1.74189)">
                            <path d="M4700,800L4700,900" style="fill:none;stroke:white;stroke-width:4.55px;"/>
                        </g>
                    </g>
                </g>
            </g>
        </g>
        <g transform="matrix(1.97703,0,0,3.26135,2171.17,43.8318)">
            <g transform="matrix(0.48391,0,0,0.367577,-1414.27,5.78007)">
                <path d="M5985.75,1456.32L5777.63,1426.18" style="fill:none;stroke:white;stroke-width:2.31px;"/>
            </g>
        </g>
    </g>
</svg>
