<?xml version="1.0" encoding="UTF-8" standalone="no"?>
<!DOCTYPE svg PUBLIC "-//W3C//DTD SVG 1.1//EN" "http://www.w3.org/Graphics/SVG/1.1/DTD/svg11.dtd">
<svg width="100%" height="100%" viewBox="0 0 228 151" version="1.1" xmlns="http://www.w3.org/2000/svg" xmlns:xlink="http://www.w3.org/1999/xlink" xml:space="preserve" xmlns:serif="http://www.serif.com/" style="fill-rule:evenodd;clip-rule:evenodd;stroke-linecap:round;stroke-linejoin:round;stroke-miterlimit:1.5;">
    <g transform="matrix(1,0,0,1,-5380.45,-2053.26)">
        <g transform="matrix(1.97703,0,0,3.26135,2171.17,43.8318)">
            <g transform="matrix(-0.48391,0,0,0.367577,4398.35,56.6874)">
                <path d="M5733.36,1540.61L5650.36,1561.29" style="fill:none;stroke:white;stroke-width:2.31px;"/>
            </g>
        </g>
        <g transform="matrix(1.97703,0,0,3.26135,2171.17,43.8318)">
            <g transform="matrix(0.4965,0,0,0.300978,1349.2,-268.878)">
                <g transform="matrix(0.153583,0,0,0.153583,670.338,2977.85)">
                    <path d="M11,452.043C11,476.309 32.008,496 57.422,496L329.93,496C352.703,496 371.664,480.168 375.355,459.41C397.238,456 414,437.855 414,416.012L414,218L436.148,218C437.691,218.031 439.207,217.609 440.512,216.793L481.027,190.477C483.297,189.008 484.664,186.488 484.664,183.785C484.664,181.086 483.297,178.566 481.027,177.098L440.512,150.516C439.234,149.605 437.719,149.078 436.148,149L414,149L414,105.359C413.801,102.676 412.516,100.191 410.445,98.473L318.219,4.516C317.703,3.777 317.07,3.129 316.34,2.602L316.09,2.367C314.582,0.844 312.523,-0.012 310.383,0L95.398,0C72.625,0 53.5,15.836 49.809,36.59C27.926,40 11,58.145 11,79.988L11,452.043ZM147,202L147,165L428,165L428,202L147,202ZM444,195.426L444,172.199L461.848,183.812L444,195.426ZM320,28.816L386.34,97L330.691,97C327.914,97.062 325.223,96.02 323.219,94.098C321.211,92.176 320.055,89.531 320,86.754L320,28.816ZM95.398,16L304,16L304,86.754C304.121,101.375 316.07,113.125 330.691,113L398,113L398,149L139.398,149C134.816,149.18 131.152,152.867 131,157.449L131,158.473L107.191,158L107.121,158C102.656,158.117 99.105,161.781 99.121,166.246L99.371,201.066C99.406,205.461 102.98,209.004 107.371,209L131,209L131,210.176C131,214.594 134.984,218 139.398,218L156.301,218L156.191,230C156.121,234.574 157.836,238.996 160.969,242.328C163.664,245.203 167.395,246.883 171.332,247L268.469,247C272.887,247 276.469,243.418 276.469,239C276.469,234.582 272.887,231 268.469,231L172.223,231C172.207,230 172.195,230.5 172.195,230.379L172.309,218L398,218L398,416.012C398,431.453 384.5,444 367.91,444L95.398,444C78.809,444 65,431.453 65,416.012L65,45.227C65,44.82 65.262,44.406 65.262,43.984C65.285,43.641 65.285,43.297 65.262,42.949C65.848,27.984 79.184,16 95.398,16ZM131,193L115.316,193L114.977,174.285L131,174.473L131,193ZM27,79.988C27,67.16 37,56.328 49,53.023L49,416.012C49,440.273 69.988,460 95.398,460L358.766,460C355.066,472 343.547,480 329.93,480L57.422,480C40.832,480 27,467.484 27,452.043L27,79.988Z" style="fill:white;fill-rule:nonzero;"/>
                    <path d="M107.461,284L238.992,284C243.41,284 246.992,280.418 246.992,276C246.992,271.582 243.41,268 238.992,268L107.461,268C103.039,268 99.461,271.582 99.461,276C99.461,280.418 103.039,284 107.461,284Z" style="fill:white;fill-rule:nonzero;"/>
                    <path d="M107.461,323L336.371,323C340.793,323 344.371,319.418 344.371,315C344.371,310.582 340.793,307 336.371,307L107.461,307C103.039,307 99.461,310.582 99.461,315C99.461,319.418 103.039,323 107.461,323Z" style="fill:white;fill-rule:nonzero;"/>
                    <path d="M107.461,362L336.371,362C340.793,362 344.371,358.418 344.371,354C344.371,349.582 340.793,346 336.371,346L107.461,346C103.039,346 99.461,349.582 99.461,354C99.461,358.418 103.039,362 107.461,362Z" style="fill:white;fill-rule:nonzero;"/>
                    <path d="M107.461,401L336.371,401C340.793,401 344.371,397.418 344.371,393C344.371,388.582 340.793,385 336.371,385L107.461,385C103.039,385 99.461,388.582 99.461,393C99.461,397.418 103.039,401 107.461,401Z" style="fill:white;fill-rule:nonzero;"/>
                </g>
                <g transform="matrix(0.470054,0,0,0.466177,45.4683,2808.89)">
                    <ellipse cx="1403.58" cy="447" rx="163.421" ry="162" style="fill:none;stroke:white;stroke-width:5.53px;"/>
                </g>
            </g>
        </g>
    </g>
</svg>
