<?xml version="1.0" encoding="UTF-8" standalone="no"?>
<!DOCTYPE svg PUBLIC "-//W3C//DTD SVG 1.1//EN" "http://www.w3.org/Graphics/SVG/1.1/DTD/svg11.dtd">
<svg width="100%" height="100%" viewBox="0 0 272 151" version="1.1" xmlns="http://www.w3.org/2000/svg" xmlns:xlink="http://www.w3.org/1999/xlink" xml:space="preserve" xmlns:serif="http://www.serif.com/" style="fill-rule:evenodd;clip-rule:evenodd;stroke-linecap:round;stroke-linejoin:round;stroke-miterlimit:1.5;">
    <g transform="matrix(1,0,0,1,-4740.66,-1380.26)">
        <g transform="matrix(1.97703,0,0,3.26135,2171.17,43.8318)">
            <g transform="matrix(0.392645,0.171458,-0.354413,0.298253,-324.111,-1009.18)">
                <path d="M5716.28,1534.6L5803.69,1461.93" style="fill:none;stroke:white;stroke-width:2.31px;"/>
            </g>
        </g>
        <g transform="matrix(1.97703,0,0,3.26135,2171.17,43.8318)">
            <g transform="matrix(0.4965,0,0,0.300978,1222.93,-473.724)">
                <g transform="matrix(0.470054,0,0,0.466177,-427.081,2803.87)">
                    <ellipse cx="1403.58" cy="447" rx="163.421" ry="162" style="fill:none;stroke:white;stroke-width:5.53px;"/>
                </g>
                <g transform="matrix(0.146883,0,0,0.146883,195.074,2979.67)">
                    <path d="M504,56L504,8L8,8L8,56L32,56L32,265.136C18.232,268.712 8,281.128 8,296C8,313.648 22.352,328 40,328L64,328L64,429.712L27.568,488L8,488L8,504L504,504L504,488L484.432,488L448,429.712L448,367.8C453.648,363.528 458.192,357.896 460.944,351.264L465.008,354.744C469.24,358.136 474.56,360 479.992,360C487.296,360 494.128,356.728 498.752,350.984C506.992,340.672 505.312,325.536 495.208,317.424L480,304.392L480,56L504,56ZM24,24L488,24L488,40L24,40L24,24ZM24,296C24,287.176 31.176,280 40,280L72,280L72,312L40,312C31.176,312 24,304.824 24,296ZM112,459.896L129.568,488L112,488L112,459.896ZM88,313.632L88,278.368L184,256.208L184,335.784L88,313.632ZM96,331.904L96,488L80,488L80,328.216L96,331.904ZM64,459.896L64,488L46.432,488L64,459.896ZM400,488L382.432,488L400,459.896L400,488ZM465.568,488L448,488L448,459.896L465.568,488ZM432,488L416,488L416,375.192C418.584,375.72 421.264,376 424,376C426.736,376 429.416,375.72 432,375.192L432,488ZM424,360C410.768,360 400,349.232 400,336C400,322.768 410.768,312 424,312C437.232,312 448,322.768 448,336C448,349.232 437.232,360 424,360ZM486.272,340.968C483.536,344.352 478.056,344.696 475.208,342.424L463.648,332.52C461.848,312.112 444.864,296 424,296C423.096,296 422.248,296.208 421.36,296.264L377.032,258.272L388.368,246.936L484.984,329.736C488.44,332.504 489,337.552 486.272,340.968ZM387.72,224.968L344,268.688L323.312,248L367.032,204.28C369.752,201.56 373.52,200 377.376,200C385.44,200 392,206.56 392,214.624C392,218.48 390.44,222.248 387.72,224.968ZM464,290.68L399.648,235.528C405,229.832 408,222.472 408,214.624C408,197.744 394.256,184 377.376,184C369.2,184 361.504,187.184 355.72,192.968L300.688,248L344,291.312L365.688,269.624L403.36,301.912C391.808,308.936 384,321.52 384,336C384,349.016 390.344,360.488 400,367.792L400,429.704L363.568,488L148.432,488L112,429.712L112,335.6L182.2,351.8L200,352L200,240L184,240L79.136,264L48,264L48,56L104,56L104,88L80,88L80,136L144,136L144,88L120,88L120,56L200,56L200,88L176,88L176,136L240,136L240,88L216,88L216,56L296,56L296,88L272,88L272,136L336,136L336,88L312,88L312,56L392,56L392,88L368,88L368,136L432,136L432,88L408,88L408,56L464,56L464,290.68ZM128,104L128,120L96,120L96,104L128,104ZM224,104L224,120L192,120L192,104L224,104ZM320,104L320,120L288,120L288,104L320,104ZM416,104L416,120L384,120L384,104L416,104Z" style="fill:white;fill-rule:nonzero;"/>
                </g>
            </g>
        </g>
    </g>
</svg>
