<?xml version="1.0" encoding="UTF-8" standalone="no"?>
<!DOCTYPE svg PUBLIC "-//W3C//DTD SVG 1.1//EN" "http://www.w3.org/Graphics/SVG/1.1/DTD/svg11.dtd">
<svg width="100%" height="100%" viewBox="0 0 260 151" version="1.1" xmlns="http://www.w3.org/2000/svg" xmlns:xlink="http://www.w3.org/1999/xlink" xml:space="preserve" xmlns:serif="http://www.serif.com/" style="fill-rule:evenodd;clip-rule:evenodd;stroke-linecap:round;stroke-linejoin:round;stroke-miterlimit:1.5;">
    <g transform="matrix(1,0,0,1,-5327.04,-1395.5)">
        <g transform="matrix(1.97703,0,0,3.26135,2171.17,43.8318)">
            <g transform="matrix(2.02425,0,0,0.161092,-10007.8,203.759)">
                <path d="M5770.53,1451.4L5797.13,1463.39" style="fill:none;stroke:white;stroke-width:0.88px;"/>
            </g>
        </g>
        <g transform="matrix(1.97703,0,0,3.26135,2171.17,43.8318)">
            <g transform="matrix(0.4965,0,0,0.300978,1167.59,-470.563)">
                <g>
                    <g transform="matrix(0.168643,0,0,0.168643,898.8,2975.96)">
                        <path d="M288,256L272,256C272,264.824 264.824,272 256,272C247.176,272 240,264.824 240,256L224,256C224,273.648 238.352,288 256,288C273.648,288 288,273.648 288,256Z" style="fill:white;fill-rule:nonzero;"/>
                        <path d="M392.984,378.312L310.912,344.728C301.848,341.024 296,332.304 296,322.512L296,316.768C320.616,299.76 339.416,275.76 350.072,247.992L352,247.992C374.056,247.992 392,230.048 392,207.992L392,143.992C392,69 330.992,7.992 256,7.992C181.008,7.992 120,69.008 120,144L120,208C120,230.056 137.944,248 160,248L161.928,248C172.584,275.768 191.384,299.76 216,316.776L216,322.52C216,332.312 210.152,341.024 201.088,344.728L119.016,378.304C71.016,397.944 40,444.144 40,496L40,504L472,504L472,496C472,444.144 440.984,397.944 392.984,378.312ZM304.856,359.536L316.832,364.44L293.808,410.496L267.312,384L296.52,354.792C299.088,356.648 301.832,358.304 304.856,359.536ZM265.472,168L246.52,168C243.208,158.712 234.408,152 223.992,152L176.2,152C183.512,142.344 194.984,136 207.992,136L261.328,136C269.928,136 278.448,133.16 285.328,128L299.192,117.6C304.016,113.992 309.976,112 315.992,112C331.432,112 343.992,124.56 343.992,140L343.992,153.472C341.488,152.576 338.816,152 336,152L288,152C277.584,152 268.784,158.712 265.472,168ZM168,176C168,171.592 171.592,168 176,168L224,168C228.408,168 232,171.592 232,176L232,192C232,196.408 228.408,200 224,200L176,200C171.592,200 168,196.408 168,192L168,176ZM280,176C280,171.592 283.592,168 288,168L336,168C340.408,168 344,171.592 344,176L344,192C344,196.408 340.408,200 336,200L288,200C283.592,200 280,196.408 280,192L280,176ZM355.312,231.664C358.344,219.808 360,207.464 360,194.808L360,185.472C369.288,188.784 376,197.584 376,208C376,220.096 366.968,230.032 355.312,231.664ZM256,24C322.168,24 376,77.832 376,144L376,176.208C371.328,172.672 365.944,170.024 360,168.816L360,140C360,115.736 340.264,96 316,96C306.544,96 297.168,99.128 289.6,104.8L275.736,115.2C271.608,118.296 266.488,120 261.328,120L208,120C179.584,120 156.096,141.296 152.52,168.752C146.376,169.92 140.8,172.56 136,176.2L136,144C136,77.832 189.832,24 256,24ZM136,208C136,197.584 142.712,188.784 152,185.472L152,194.808C152,207.464 153.656,219.808 156.688,231.664C145.032,230.032 136,220.096 136,208ZM169.56,215.008C171.624,215.592 173.752,216 176,216L224,216C237.232,216 248,205.232 248,192L248,184L264,184L264,192C264,205.232 274.768,216 288,216L336,216C338.248,216 340.376,215.592 342.44,215.008C335.136,262.664 302.32,303.064 256,319.536C209.68,303.064 176.864,262.664 169.56,215.008ZM253.472,335.592L256,336.432L258.528,335.592C266.104,333.064 273.368,329.976 280.28,326.376C280.856,332.36 282.728,337.992 285.704,342.984L256,372.688L226.288,342.976C229.264,337.984 231.136,332.352 231.712,326.368C238.624,329.968 245.896,333.064 253.472,335.592ZM207.144,359.536C210.168,358.296 212.912,356.64 215.48,354.784L244.688,384L218.192,410.496L195.168,364.44L207.144,359.536ZM392,488L392,440L376,440L376,488L264,488L264,472L248,472L248,488L136,488L136,440L120,440L120,488L56.28,488C59.264,445.96 85.6,409.264 125.072,393.112L180.312,370.512L213.808,437.504L256,395.312L298.192,437.504L331.688,370.512L386.936,393.112C426.408,409.256 452.744,445.952 455.728,487.992L392,487.992L392,488Z" style="fill:white;fill-rule:nonzero;"/>
                        <rect x="248" y="408" width="16" height="16" style="fill:white;fill-rule:nonzero;"/>
                        <rect x="248" y="440" width="16" height="16" style="fill:white;fill-rule:nonzero;"/>
                    </g>
                    <g transform="matrix(0.470054,0,0,0.466177,281.743,2808.89)">
                        <ellipse cx="1403.58" cy="447" rx="163.421" ry="162" style="fill:none;stroke:white;stroke-width:5.53px;"/>
                    </g>
                </g>
            </g>
        </g>
    </g>
</svg>
