<?xml version="1.0" encoding="UTF-8" standalone="no"?>
<!DOCTYPE svg PUBLIC "-//W3C//DTD SVG 1.1//EN" "http://www.w3.org/Graphics/SVG/1.1/DTD/svg11.dtd">
<svg width="100%" height="100%" viewBox="0 0 1672 1451" version="1.1" xmlns="http://www.w3.org/2000/svg" xmlns:xlink="http://www.w3.org/1999/xlink" xml:space="preserve" xmlns:serif="http://www.serif.com/" style="fill-rule:evenodd;clip-rule:evenodd;stroke-linejoin:round;stroke-miterlimit:2;">
    <g transform="matrix(1,0,0,1,-930,-364)">
        <g>
            <clipPath id="_clip1">
                <ellipse cx="1766" cy="1089.5" rx="729.646" ry="725.5"/>
            </clipPath>
            <g clip-path="url(#_clip1)">
                <rect x="930" y="364" width="1672" height="1451" style="fill:rgb(179,136,152);"/>
                <g transform="matrix(1324.85,0,0,1324.85,1447.08,1467.01)">
                    <path d="M0.093,-0.304C0.095,-0.315 0.098,-0.326 0.102,-0.337C0.104,-0.347 0.108,-0.358 0.112,-0.369C0.116,-0.376 0.12,-0.383 0.125,-0.391C0.13,-0.398 0.135,-0.405 0.141,-0.41C0.143,-0.413 0.146,-0.416 0.149,-0.419C0.153,-0.422 0.156,-0.424 0.158,-0.427C0.163,-0.432 0.169,-0.437 0.176,-0.441C0.182,-0.446 0.188,-0.45 0.195,-0.453C0.199,-0.455 0.203,-0.457 0.207,-0.458C0.212,-0.459 0.216,-0.461 0.22,-0.463C0.221,-0.464 0.222,-0.464 0.224,-0.464L0.229,-0.464L0.254,-0.466C0.27,-0.466 0.285,-0.463 0.297,-0.457C0.309,-0.451 0.32,-0.442 0.331,-0.431C0.336,-0.425 0.342,-0.42 0.348,-0.414C0.354,-0.408 0.358,-0.401 0.362,-0.395C0.371,-0.377 0.378,-0.359 0.382,-0.34C0.386,-0.322 0.388,-0.302 0.387,-0.281C0.386,-0.267 0.383,-0.253 0.378,-0.24C0.372,-0.227 0.365,-0.215 0.355,-0.204C0.354,-0.201 0.352,-0.199 0.35,-0.196C0.348,-0.194 0.346,-0.192 0.344,-0.19L0.322,-0.171C0.316,-0.166 0.311,-0.161 0.305,-0.156C0.299,-0.151 0.295,-0.146 0.29,-0.141C0.283,-0.131 0.279,-0.12 0.279,-0.109C0.279,-0.098 0.279,-0.087 0.278,-0.076L0.274,-0.049C0.274,-0.04 0.272,-0.032 0.27,-0.024C0.268,-0.016 0.263,-0.009 0.256,-0.005C0.251,-0.002 0.246,-0.001 0.24,-0.001C0.235,-0.001 0.23,-0.001 0.226,-0.002C0.215,-0.002 0.203,-0.002 0.192,-0.003C0.182,-0.003 0.173,-0.008 0.165,-0.018C0.161,-0.024 0.159,-0.031 0.159,-0.039C0.159,-0.046 0.159,-0.054 0.159,-0.062C0.159,-0.075 0.158,-0.089 0.156,-0.103C0.158,-0.09 0.158,-0.084 0.158,-0.087C0.158,-0.09 0.158,-0.095 0.156,-0.103L0.156,-0.118C0.156,-0.123 0.156,-0.128 0.155,-0.133C0.155,-0.139 0.153,-0.145 0.151,-0.15C0.149,-0.156 0.147,-0.161 0.145,-0.166C0.142,-0.171 0.139,-0.176 0.137,-0.18C0.133,-0.184 0.131,-0.189 0.128,-0.194C0.127,-0.196 0.127,-0.197 0.126,-0.197C0.125,-0.199 0.124,-0.2 0.123,-0.201C0.115,-0.219 0.108,-0.236 0.103,-0.25C0.097,-0.265 0.093,-0.283 0.093,-0.304ZM0.098,-0.505C0.098,-0.508 0.1,-0.511 0.104,-0.513C0.106,-0.515 0.109,-0.514 0.112,-0.512C0.117,-0.507 0.121,-0.501 0.124,-0.494C0.127,-0.487 0.131,-0.481 0.134,-0.476C0.135,-0.474 0.137,-0.471 0.139,-0.469C0.141,-0.466 0.142,-0.464 0.142,-0.461C0.141,-0.457 0.139,-0.454 0.136,-0.453C0.132,-0.451 0.129,-0.451 0.125,-0.454C0.121,-0.458 0.117,-0.464 0.113,-0.472C0.109,-0.48 0.105,-0.487 0.104,-0.492C0.102,-0.494 0.101,-0.496 0.1,-0.498C0.098,-0.5 0.098,-0.502 0.098,-0.505ZM0.112,-0.304C0.112,-0.285 0.115,-0.268 0.121,-0.252C0.128,-0.237 0.135,-0.221 0.143,-0.205C0.145,-0.201 0.148,-0.196 0.151,-0.191C0.155,-0.188 0.157,-0.183 0.159,-0.178C0.162,-0.174 0.164,-0.17 0.166,-0.165C0.168,-0.16 0.169,-0.156 0.17,-0.151C0.171,-0.149 0.171,-0.147 0.172,-0.144C0.173,-0.14 0.174,-0.138 0.175,-0.136C0.177,-0.134 0.18,-0.133 0.185,-0.132C0.188,-0.131 0.192,-0.129 0.195,-0.128C0.202,-0.126 0.209,-0.124 0.217,-0.123C0.225,-0.122 0.232,-0.122 0.238,-0.123L0.258,-0.129L0.261,-0.129C0.261,-0.128 0.262,-0.128 0.263,-0.129C0.263,-0.13 0.264,-0.132 0.266,-0.135C0.267,-0.139 0.268,-0.141 0.269,-0.143C0.271,-0.146 0.273,-0.149 0.275,-0.152C0.278,-0.156 0.281,-0.159 0.283,-0.162C0.3,-0.177 0.317,-0.193 0.335,-0.21C0.353,-0.226 0.363,-0.246 0.367,-0.271C0.37,-0.299 0.368,-0.325 0.361,-0.349C0.354,-0.373 0.34,-0.395 0.32,-0.415C0.309,-0.427 0.297,-0.436 0.285,-0.441C0.273,-0.447 0.258,-0.449 0.241,-0.447C0.236,-0.447 0.23,-0.445 0.224,-0.443C0.218,-0.442 0.212,-0.44 0.207,-0.438C0.192,-0.431 0.177,-0.421 0.163,-0.406C0.149,-0.392 0.138,-0.378 0.131,-0.363C0.126,-0.354 0.123,-0.344 0.12,-0.334C0.117,-0.324 0.114,-0.313 0.112,-0.304ZM0.176,-0.115C0.175,-0.114 0.175,-0.112 0.175,-0.11C0.175,-0.108 0.175,-0.107 0.176,-0.105C0.176,-0.105 0.179,-0.103 0.183,-0.101C0.187,-0.099 0.19,-0.097 0.191,-0.097C0.201,-0.093 0.208,-0.09 0.214,-0.089C0.22,-0.087 0.229,-0.086 0.238,-0.087C0.242,-0.087 0.244,-0.087 0.247,-0.088C0.25,-0.089 0.252,-0.09 0.255,-0.092L0.258,-0.092C0.258,-0.092 0.259,-0.093 0.26,-0.094L0.26,-0.101C0.26,-0.105 0.26,-0.108 0.26,-0.108C0.26,-0.109 0.259,-0.109 0.257,-0.108C0.256,-0.108 0.255,-0.108 0.254,-0.107C0.25,-0.107 0.246,-0.106 0.242,-0.104C0.238,-0.103 0.234,-0.103 0.23,-0.104C0.22,-0.105 0.21,-0.106 0.199,-0.107C0.209,-0.106 0.213,-0.105 0.211,-0.105C0.209,-0.106 0.205,-0.107 0.199,-0.107C0.195,-0.108 0.191,-0.109 0.188,-0.11C0.184,-0.112 0.18,-0.114 0.176,-0.115ZM0.178,-0.082C0.177,-0.08 0.177,-0.077 0.177,-0.072C0.177,-0.068 0.177,-0.065 0.178,-0.063C0.178,-0.063 0.18,-0.063 0.184,-0.062C0.186,-0.061 0.188,-0.06 0.189,-0.06C0.197,-0.056 0.204,-0.054 0.213,-0.054C0.221,-0.052 0.229,-0.053 0.236,-0.055C0.24,-0.056 0.243,-0.057 0.246,-0.059C0.249,-0.061 0.252,-0.063 0.255,-0.064C0.256,-0.066 0.257,-0.067 0.258,-0.067C0.258,-0.069 0.259,-0.07 0.259,-0.071C0.257,-0.072 0.256,-0.072 0.253,-0.07C0.25,-0.07 0.248,-0.069 0.247,-0.069C0.243,-0.068 0.24,-0.067 0.236,-0.067L0.226,-0.067C0.221,-0.067 0.216,-0.068 0.21,-0.069C0.204,-0.071 0.199,-0.072 0.194,-0.074C0.192,-0.076 0.189,-0.077 0.186,-0.078C0.183,-0.08 0.18,-0.081 0.178,-0.082ZM0.178,-0.043L0.178,-0.037C0.178,-0.035 0.179,-0.034 0.179,-0.032C0.183,-0.024 0.189,-0.021 0.198,-0.021C0.207,-0.02 0.215,-0.02 0.222,-0.021C0.226,-0.021 0.23,-0.02 0.234,-0.02C0.239,-0.019 0.243,-0.02 0.247,-0.022C0.249,-0.024 0.251,-0.026 0.252,-0.029C0.253,-0.032 0.254,-0.035 0.254,-0.037C0.255,-0.037 0.255,-0.038 0.255,-0.039L0.255,-0.042C0.254,-0.042 0.253,-0.042 0.252,-0.041C0.25,-0.04 0.249,-0.039 0.248,-0.039C0.245,-0.038 0.243,-0.037 0.239,-0.036C0.237,-0.035 0.234,-0.035 0.23,-0.034C0.22,-0.034 0.211,-0.034 0.203,-0.036C0.196,-0.038 0.188,-0.04 0.178,-0.043ZM0.235,-0.521C0.237,-0.524 0.237,-0.527 0.237,-0.531C0.237,-0.535 0.238,-0.539 0.238,-0.543L0.238,-0.555C0.238,-0.559 0.239,-0.562 0.241,-0.565C0.243,-0.569 0.246,-0.57 0.249,-0.568C0.253,-0.568 0.256,-0.566 0.257,-0.563C0.257,-0.561 0.258,-0.56 0.258,-0.558C0.257,-0.556 0.257,-0.554 0.257,-0.552L0.255,-0.52C0.254,-0.517 0.254,-0.514 0.255,-0.512L0.255,-0.504C0.253,-0.499 0.25,-0.497 0.246,-0.496C0.242,-0.496 0.238,-0.498 0.236,-0.502C0.236,-0.505 0.235,-0.507 0.235,-0.511L0.235,-0.521ZM0.347,-0.466C0.348,-0.47 0.352,-0.476 0.358,-0.482C0.365,-0.488 0.37,-0.492 0.375,-0.494C0.378,-0.495 0.382,-0.495 0.385,-0.494C0.387,-0.492 0.389,-0.49 0.389,-0.486C0.389,-0.483 0.388,-0.48 0.386,-0.479C0.383,-0.477 0.381,-0.476 0.379,-0.475C0.376,-0.472 0.373,-0.468 0.369,-0.464C0.365,-0.459 0.362,-0.456 0.359,-0.455C0.355,-0.454 0.352,-0.454 0.35,-0.457C0.348,-0.459 0.347,-0.462 0.347,-0.466Z" style="fill:rgb(253,253,253);fill-rule:nonzero;"/>
                </g>
            </g>
        </g>
    </g>
</svg>
