<?xml version="1.0" encoding="UTF-8" standalone="no"?>
<!DOCTYPE svg PUBLIC "-//W3C//DTD SVG 1.1//EN" "http://www.w3.org/Graphics/SVG/1.1/DTD/svg11.dtd">
<svg width="100%" height="100%" viewBox="0 0 473 473" version="1.1" xmlns="http://www.w3.org/2000/svg" xmlns:xlink="http://www.w3.org/1999/xlink" xml:space="preserve" xmlns:serif="http://www.serif.com/" style="fill-rule:evenodd;clip-rule:evenodd;stroke-linejoin:round;stroke-miterlimit:2;">
    <g transform="matrix(344.823,0,0,344.823,25.4202,430.184)">
        <path d="M0.611,-1.125C0.772,-1.125 0.913,-1.061 1.035,-0.932C1.128,-0.82 1.174,-0.697 1.174,-0.564C1.174,-0.394 1.105,-0.248 0.967,-0.127C0.856,-0.042 0.739,-0 0.613,-0C0.439,-0 0.29,-0.073 0.166,-0.219C0.088,-0.327 0.049,-0.442 0.049,-0.563C0.049,-0.685 0.09,-0.801 0.172,-0.912C0.244,-1.006 0.346,-1.071 0.477,-1.107C0.499,-1.115 0.544,-1.121 0.611,-1.125ZM0.539,-0.715L0.539,-0.658L0.535,-0.654L0.434,-0.654L0.434,-0.531L0.535,-0.531L0.539,-0.527L0.539,-0.221L0.664,-0.221L0.664,-0.527L0.668,-0.531L0.77,-0.531L0.785,-0.654L0.668,-0.654L0.664,-0.658L0.664,-0.715C0.664,-0.762 0.674,-0.785 0.693,-0.785C0.7,-0.789 0.716,-0.791 0.742,-0.791L0.789,-0.791L0.789,-0.9L0.699,-0.904C0.626,-0.904 0.577,-0.874 0.551,-0.813C0.543,-0.793 0.539,-0.76 0.539,-0.715Z" style="fill:white;fill-rule:nonzero;"/>
    </g>
</svg>
