<?xml version="1.0" encoding="UTF-8" standalone="no"?>
<!DOCTYPE svg PUBLIC "-//W3C//DTD SVG 1.1//EN" "http://www.w3.org/Graphics/SVG/1.1/DTD/svg11.dtd">
<svg width="100%" height="100%" viewBox="0 0 473 473" version="1.1" xmlns="http://www.w3.org/2000/svg" xmlns:xlink="http://www.w3.org/1999/xlink" xml:space="preserve" xmlns:serif="http://www.serif.com/" style="fill-rule:evenodd;clip-rule:evenodd;stroke-linejoin:round;stroke-miterlimit:2;">
    <g transform="matrix(344.823,0,0,344.823,25.4202,430.184)">
        <path d="M0.611,-1.125C0.772,-1.125 0.913,-1.061 1.035,-0.932C1.128,-0.82 1.174,-0.697 1.174,-0.564C1.174,-0.394 1.105,-0.248 0.967,-0.127C0.856,-0.042 0.739,-0 0.613,-0C0.439,-0 0.29,-0.073 0.166,-0.219C0.088,-0.327 0.049,-0.442 0.049,-0.563C0.049,-0.685 0.09,-0.801 0.172,-0.912C0.244,-1.006 0.346,-1.071 0.477,-1.107C0.499,-1.115 0.544,-1.121 0.611,-1.125ZM0.27,-0.822C0.278,-0.768 0.305,-0.74 0.35,-0.74L0.355,-0.74C0.396,-0.74 0.422,-0.764 0.434,-0.813L0.434,-0.824C0.434,-0.86 0.413,-0.885 0.373,-0.9L0.354,-0.904C0.313,-0.904 0.286,-0.882 0.271,-0.836L0.27,-0.822ZM0.648,-0.617L0.646,-0.617L0.646,-0.678L0.512,-0.678L0.512,-0.221L0.652,-0.221L0.652,-0.445C0.652,-0.525 0.681,-0.564 0.738,-0.564C0.771,-0.564 0.794,-0.548 0.807,-0.514C0.811,-0.491 0.813,-0.465 0.813,-0.436L0.813,-0.221L0.953,-0.221L0.953,-0.453C0.953,-0.564 0.932,-0.632 0.891,-0.656C0.865,-0.677 0.83,-0.688 0.785,-0.688C0.729,-0.688 0.683,-0.664 0.648,-0.617ZM0.281,-0.678L0.281,-0.221L0.422,-0.221L0.422,-0.678L0.281,-0.678Z" style="fill:white;fill-rule:nonzero;"/>
    </g>
</svg>
