<?xml version="1.0" encoding="UTF-8" standalone="no"?>
<!DOCTYPE svg PUBLIC "-//W3C//DTD SVG 1.1//EN" "http://www.w3.org/Graphics/SVG/1.1/DTD/svg11.dtd">
<svg width="100%" height="100%" viewBox="0 0 19 19" version="1.1" xmlns="http://www.w3.org/2000/svg" xmlns:xlink="http://www.w3.org/1999/xlink" xml:space="preserve" xmlns:serif="http://www.serif.com/" style="fill-rule:evenodd;clip-rule:evenodd;stroke-linejoin:round;stroke-miterlimit:2;">
    <g transform="matrix(1,0,0,1,-1161.48,-5.22187)">
        <g transform="matrix(1.61713,0,0,1.61713,-424.084,-56.5423)">
            <g transform="matrix(9.92502,0,0,9.92502,980,49.3594)">
                <path d="M0.215,-1.125L1.014,-1.125C1.09,-1.125 1.141,-1.095 1.166,-1.035C1.171,-1.018 1.174,-0.995 1.174,-0.967L1.174,-0.158C1.174,-0.096 1.156,-0.054 1.121,-0.031C1.1,-0.01 1.066,-0 1.02,-0L0.205,-0C0.125,-0 0.074,-0.035 0.053,-0.105L0.049,-0.166L0.049,-0.965C0.049,-1.045 0.082,-1.097 0.148,-1.119C0.164,-1.123 0.186,-1.125 0.215,-1.125ZM0.539,-0.715L0.539,-0.658L0.535,-0.654L0.434,-0.654L0.434,-0.531L0.535,-0.531L0.539,-0.527L0.539,-0.221L0.664,-0.221L0.664,-0.527L0.668,-0.531L0.77,-0.531L0.785,-0.654L0.668,-0.654L0.664,-0.658L0.664,-0.715C0.664,-0.762 0.674,-0.785 0.693,-0.785C0.7,-0.789 0.716,-0.791 0.742,-0.791L0.789,-0.791L0.789,-0.9L0.699,-0.904C0.626,-0.904 0.577,-0.874 0.551,-0.813C0.543,-0.793 0.539,-0.76 0.539,-0.715Z" style="fill:white;fill-rule:nonzero;"/>
            </g>
        </g>
    </g>
</svg>
