<?xml version="1.0" encoding="UTF-8" standalone="no"?>
<!DOCTYPE svg PUBLIC "-//W3C//DTD SVG 1.1//EN" "http://www.w3.org/Graphics/SVG/1.1/DTD/svg11.dtd">
<svg width="100%" height="100%" viewBox="0 0 19 19" version="1.1" xmlns="http://www.w3.org/2000/svg" xmlns:xlink="http://www.w3.org/1999/xlink" xml:space="preserve" xmlns:serif="http://www.serif.com/" style="fill-rule:evenodd;clip-rule:evenodd;stroke-linejoin:round;stroke-miterlimit:2;">
    <g transform="matrix(1,0,0,1,-1244.24,-5.22187)">
        <g transform="matrix(1.61713,0,0,1.61713,-424.084,-56.5423)">
            <g transform="matrix(9.92502,0,0,9.92502,1031.18,49.3594)">
                <path d="M0.215,-1.125L1.014,-1.125C1.09,-1.125 1.141,-1.095 1.166,-1.035C1.171,-1.018 1.174,-0.995 1.174,-0.967L1.174,-0.158C1.174,-0.096 1.156,-0.054 1.121,-0.031C1.1,-0.01 1.066,-0 1.02,-0L0.205,-0C0.125,-0 0.074,-0.035 0.053,-0.105L0.049,-0.166L0.049,-0.965C0.049,-1.045 0.082,-1.097 0.148,-1.119C0.164,-1.123 0.186,-1.125 0.215,-1.125ZM0.35,-0.658C0.35,-0.593 0.374,-0.541 0.422,-0.502C0.43,-0.497 0.436,-0.494 0.439,-0.494C0.446,-0.494 0.452,-0.514 0.457,-0.555L0.457,-0.557C0.435,-0.59 0.424,-0.622 0.424,-0.652C0.424,-0.686 0.434,-0.72 0.455,-0.754C0.495,-0.806 0.546,-0.832 0.607,-0.832C0.688,-0.832 0.743,-0.795 0.773,-0.721C0.779,-0.698 0.781,-0.679 0.781,-0.664C0.777,-0.563 0.743,-0.502 0.678,-0.48C0.671,-0.478 0.66,-0.477 0.646,-0.477C0.622,-0.477 0.604,-0.492 0.592,-0.521L0.59,-0.535L0.625,-0.678L0.625,-0.684C0.625,-0.718 0.611,-0.738 0.584,-0.744L0.574,-0.746C0.525,-0.737 0.5,-0.706 0.5,-0.654L0.498,-0.646C0.498,-0.629 0.503,-0.608 0.512,-0.584C0.477,-0.442 0.459,-0.36 0.459,-0.338L0.459,-0.311C0.459,-0.285 0.462,-0.256 0.467,-0.221L0.469,-0.221C0.516,-0.287 0.548,-0.365 0.564,-0.453L0.566,-0.455L0.57,-0.455C0.594,-0.425 0.623,-0.41 0.658,-0.41L0.66,-0.41C0.747,-0.41 0.812,-0.459 0.854,-0.557C0.867,-0.595 0.873,-0.63 0.873,-0.662C0.873,-0.763 0.824,-0.837 0.727,-0.883C0.69,-0.897 0.656,-0.904 0.623,-0.904C0.5,-0.904 0.414,-0.852 0.367,-0.748C0.355,-0.714 0.35,-0.684 0.35,-0.658Z" style="fill:white;fill-rule:nonzero;"/>
            </g>
        </g>
    </g>
</svg>
