<?xml version="1.0" encoding="UTF-8" standalone="no"?>
<!DOCTYPE svg PUBLIC "-//W3C//DTD SVG 1.1//EN" "http://www.w3.org/Graphics/SVG/1.1/DTD/svg11.dtd">
<svg width="100%" height="100%" viewBox="0 0 19 19" version="1.1" xmlns="http://www.w3.org/2000/svg" xmlns:xlink="http://www.w3.org/1999/xlink" xml:space="preserve" xmlns:serif="http://www.serif.com/" style="fill-rule:evenodd;clip-rule:evenodd;stroke-linejoin:round;stroke-miterlimit:2;">
    <g transform="matrix(1,0,0,1,-1216.66,-5.22187)">
        <g transform="matrix(1.61713,0,0,1.61713,-424.084,-56.5423)">
            <g transform="matrix(9.92502,0,0,9.92502,1014.12,49.3594)">
                <path d="M0.215,-1.125L1.014,-1.125C1.09,-1.125 1.141,-1.095 1.166,-1.035C1.171,-1.018 1.174,-0.995 1.174,-0.967L1.174,-0.158C1.174,-0.096 1.156,-0.054 1.121,-0.031C1.1,-0.01 1.066,-0 1.02,-0L0.205,-0C0.125,-0 0.074,-0.035 0.053,-0.105L0.049,-0.166L0.049,-0.965C0.049,-1.045 0.082,-1.097 0.148,-1.119C0.164,-1.123 0.186,-1.125 0.215,-1.125ZM0.27,-0.561C0.271,-0.457 0.28,-0.393 0.299,-0.367C0.318,-0.341 0.364,-0.328 0.436,-0.328C0.436,-0.326 0.495,-0.324 0.615,-0.322C0.774,-0.322 0.869,-0.33 0.9,-0.346C0.932,-0.367 0.947,-0.404 0.947,-0.457C0.95,-0.457 0.951,-0.493 0.953,-0.564C0.953,-0.675 0.942,-0.741 0.92,-0.762C0.902,-0.785 0.85,-0.797 0.764,-0.797L0.611,-0.801C0.425,-0.798 0.332,-0.792 0.332,-0.781C0.299,-0.763 0.283,-0.742 0.283,-0.717C0.277,-0.702 0.272,-0.65 0.27,-0.561ZM0.543,-0.662L0.545,-0.662L0.719,-0.564L0.719,-0.563C0.615,-0.499 0.556,-0.465 0.543,-0.461L0.543,-0.662Z" style="fill:white;fill-rule:nonzero;"/>
            </g>
        </g>
    </g>
</svg>
