<?xml version="1.0" encoding="UTF-8" standalone="no"?>
<!DOCTYPE svg PUBLIC "-//W3C//DTD SVG 1.1//EN" "http://www.w3.org/Graphics/SVG/1.1/DTD/svg11.dtd">
<svg width="100%" height="100%" viewBox="0 0 473 473" version="1.1" xmlns="http://www.w3.org/2000/svg" xmlns:xlink="http://www.w3.org/1999/xlink" xml:space="preserve" xmlns:serif="http://www.serif.com/" style="fill-rule:evenodd;clip-rule:evenodd;stroke-linejoin:round;stroke-miterlimit:2;">
    <g transform="matrix(344.823,0,0,344.823,25.4202,430.184)">
        <path d="M0.611,-1.125C0.772,-1.125 0.913,-1.061 1.035,-0.932C1.128,-0.82 1.174,-0.697 1.174,-0.564C1.174,-0.394 1.105,-0.248 0.967,-0.127C0.856,-0.042 0.739,-0 0.613,-0C0.439,-0 0.29,-0.073 0.166,-0.219C0.088,-0.327 0.049,-0.442 0.049,-0.563C0.049,-0.685 0.09,-0.801 0.172,-0.912C0.244,-1.006 0.346,-1.071 0.477,-1.107C0.499,-1.115 0.544,-1.121 0.611,-1.125ZM0.27,-0.578L0.27,-0.549C0.27,-0.41 0.279,-0.333 0.299,-0.318C0.313,-0.285 0.344,-0.257 0.393,-0.236C0.42,-0.226 0.472,-0.221 0.549,-0.221L0.68,-0.221C0.782,-0.221 0.845,-0.233 0.869,-0.258C0.9,-0.273 0.924,-0.306 0.941,-0.357C0.949,-0.384 0.953,-0.43 0.953,-0.494L0.953,-0.625C0.953,-0.735 0.939,-0.803 0.91,-0.828C0.894,-0.856 0.86,-0.879 0.809,-0.895C0.782,-0.901 0.72,-0.904 0.625,-0.904L0.596,-0.904C0.46,-0.904 0.383,-0.895 0.367,-0.875C0.335,-0.86 0.308,-0.83 0.287,-0.785C0.275,-0.761 0.27,-0.692 0.27,-0.578ZM0.631,-0.842C0.755,-0.842 0.816,-0.836 0.816,-0.824C0.83,-0.824 0.849,-0.807 0.873,-0.773C0.885,-0.76 0.891,-0.708 0.891,-0.615L0.891,-0.51C0.891,-0.413 0.884,-0.36 0.871,-0.35C0.86,-0.328 0.841,-0.311 0.814,-0.297C0.802,-0.288 0.752,-0.283 0.664,-0.283L0.559,-0.283C0.458,-0.283 0.404,-0.29 0.396,-0.305C0.375,-0.313 0.357,-0.336 0.342,-0.371C0.336,-0.371 0.333,-0.428 0.332,-0.543L0.332,-0.582C0.332,-0.706 0.338,-0.768 0.35,-0.768C0.358,-0.791 0.376,-0.81 0.404,-0.824C0.42,-0.836 0.465,-0.842 0.539,-0.842L0.631,-0.842ZM0.752,-0.744C0.752,-0.721 0.766,-0.707 0.795,-0.703C0.821,-0.709 0.834,-0.722 0.834,-0.742C0.83,-0.771 0.816,-0.785 0.793,-0.785C0.766,-0.779 0.752,-0.765 0.752,-0.744ZM0.436,-0.563C0.436,-0.5 0.465,-0.449 0.523,-0.41C0.553,-0.395 0.582,-0.387 0.611,-0.387C0.686,-0.387 0.741,-0.424 0.775,-0.5C0.783,-0.522 0.787,-0.543 0.787,-0.561C0.787,-0.635 0.751,-0.689 0.678,-0.725C0.662,-0.731 0.641,-0.736 0.613,-0.738C0.54,-0.738 0.486,-0.702 0.449,-0.629C0.443,-0.612 0.438,-0.59 0.436,-0.563ZM0.611,-0.676C0.658,-0.676 0.693,-0.652 0.717,-0.604C0.722,-0.588 0.725,-0.573 0.725,-0.561C0.725,-0.512 0.699,-0.477 0.646,-0.455C0.633,-0.451 0.621,-0.449 0.609,-0.449C0.559,-0.449 0.523,-0.478 0.502,-0.535L0.498,-0.563C0.498,-0.613 0.526,-0.649 0.582,-0.672L0.611,-0.676Z" style="fill:white;fill-rule:nonzero;"/>
    </g>
</svg>
